<svg width="17" height="15" viewBox="0 0 17 15" stroke-width="0.9"
    xmlns="http://www.w3.org/2000/svg">
    <path fill-rule="evenodd" clip-rule="evenodd" d="M0.937256 0H15.5623C15.7777 0 15.9844 0.0856024 16.1368 0.237976C16.2892 0.390349 16.3748 0.597012 16.3748 0.8125V13.8125C16.3748 14.028 16.2892 14.2347 16.1368 14.387C15.9844 14.5394 15.7777 14.625 15.5623 14.625H0.937256C0.721767 14.625 0.515105 14.5394 0.362732 14.387C0.210358 14.2347 0.124756 14.028 0.124756 13.8125V0.8125C0.124756 0.597012 0.210358 0.390349 0.362732 0.237976C0.515105 0.0856024 0.721767 0 0.937256 0ZM14.7498 3.44337L8.30826 9.21213L1.74976 3.4255V13H14.7498V3.44337ZM2.16494 1.625L8.29932 7.03787L14.3451 1.625H2.16494Z" stroke="#F6F7F8" fill="#7A7A80"/>
</svg>
