<svg width="24" height="24" viewBox="0 0 24 24" fill="none" xmlns="http://www.w3.org/2000/svg">
<path fill-rule="evenodd" clip-rule="evenodd" d="M16.3345 2.75H7.66549C4.64449 2.75 2.75049 4.889 2.75049 7.916V16.084C2.75049 19.111 4.63549 21.25 7.66549 21.25H16.3335C19.3645 21.25 21.2505 19.111 21.2505 16.084V7.916C21.2505 4.889 19.3645 2.75 16.3345 2.75Z" stroke="#7A7A80" stroke-width="1" stroke-linecap="round" stroke-linejoin="round"/>
<path fill-rule="evenodd" clip-rule="evenodd" d="M10.6922 12.0004C10.6922 13.0224 9.86326 13.8524 8.84026 13.8524C7.81826 13.8524 6.98926 13.0224 6.98926 12.0004C6.98926 10.9784 7.81826 10.1484 8.84026 10.1484C9.86326 10.1484 10.6922 10.9784 10.6922 12.0004Z" stroke="#7A7A80" stroke-width="1" stroke-linecap="round" stroke-linejoin="round"/>
<path d="M10.6924 12H17.0104V13.852" stroke="#7A7A80" stroke-width="1" stroke-linecap="round" stroke-linejoin="round"/>
<path d="M14.1816 13.8515V11.9995" stroke="#7A7A80" stroke-width="1" stroke-linecap="round" stroke-linejoin="round"/>
</svg>
