<svg width="17" height="19" viewBox="0 0 17 19" stroke-width=".9"
    xmlns="http://www.w3.org/2000/svg">
    <path d="M15.3185 18.5625H2.80601C2.09489 18.5625 1.41291 18.28 0.910076 17.7772C0.407244 17.2743 0.124756 16.5924 0.124756 15.8813V3.36875C0.124756 2.65764 0.407244 1.97565 0.910076 1.47282C1.41291 0.969988 2.09489 0.6875 2.80601 0.6875H15.3185C15.5555 0.6875 15.7829 0.781663 15.9505 0.949273C16.1181 1.11688 16.2123 1.34421 16.2123 1.58125V17.6688C16.2123 17.9058 16.1181 18.1331 15.9505 18.3007C15.7829 18.4683 15.5555 18.5625 15.3185 18.5625ZM14.4248 16.775V14.9875H2.80601C2.56897 14.9875 2.34164 15.0817 2.17403 15.2493C2.00642 15.4169 1.91226 15.6442 1.91226 15.8813C1.91226 16.1183 2.00642 16.3456 2.17403 16.5132C2.34164 16.6808 2.56897 16.775 2.80601 16.775H14.4248ZM1.91226 13.3519C2.192 13.2536 2.49319 13.2 2.80601 13.2H14.4248V2.475H2.80601C2.56897 2.475 2.34164 2.56916 2.17403 2.73677C2.00642 2.90438 1.91226 3.13171 1.91226 3.36875V13.3519ZM8.1685 7.8375C7.69443 7.8375 7.23977 7.64917 6.90455 7.31395C6.56933 6.97873 6.38101 6.52407 6.38101 6.05C6.38101 5.57593 6.56933 5.12127 6.90455 4.78605C7.23977 4.45083 7.69443 4.2625 8.1685 4.2625C8.64258 4.2625 9.09724 4.45083 9.43246 4.78605C9.76768 5.12127 9.95601 5.57593 9.95601 6.05C9.95601 6.52407 9.76768 6.97873 9.43246 7.31395C9.09724 7.64917 8.64258 7.8375 8.1685 7.8375ZM5.48726 11.4125C5.48726 10.7014 5.76974 10.0194 6.27257 9.51657C6.77541 9.01374 7.45739 8.73125 8.1685 8.73125C8.87962 8.73125 9.5616 9.01374 10.0644 9.51657C10.5673 10.0194 10.8498 10.7014 10.8498 11.4125H5.48726Z" stroke="#F6F7F8" fill="#7A7A80"/>
</svg>
