<svg width="89" height="81" viewBox="0 0 89 81" fill="none" xmlns="http://www.w3.org/2000/svg">
<path d="M11.9972 63.1169C10.0765 63.1169 8.42964 62.8492 7.05639 62.3138C5.69243 61.7879 4.60685 61.0694 3.79961 60.1583C2.99237 59.2472 2.46813 58.2235 2.22689 57.087L7.71052 56.3403C7.87754 56.7723 8.14197 57.1762 8.50386 57.5519C8.86574 57.9276 9.34356 58.2282 9.93742 58.4536C10.5405 58.6884 11.2735 58.8058 12.1364 58.8058C13.4261 58.8058 14.4885 58.4865 15.3235 57.8477C16.1679 57.2185 16.5901 56.1619 16.5901 54.6778V50.7189H16.3396C16.0798 51.3201 15.6901 51.8883 15.1705 52.4236C14.6509 52.9591 13.9828 53.3958 13.1663 53.7339C12.3498 54.0721 11.3755 54.2411 10.2436 54.2411C8.63834 54.2411 7.177 53.8654 5.85945 53.114C4.55117 52.3532 3.50733 51.1933 2.72793 49.6341C1.95781 48.0656 1.57275 46.0838 1.57275 43.6888C1.57275 41.2373 1.96709 39.1898 2.75577 37.5461C3.54445 35.9024 4.59292 34.6721 5.9012 33.8549C7.21876 33.0378 8.66161 32.6292 10.2296 32.6292C11.4266 32.6292 12.4287 32.8359 13.2359 33.2491C14.0432 33.653 14.6926 34.1601 15.1844 34.7707C15.6854 35.3718 16.0705 35.9635 16.3396 36.5458H16.5623V32.911H22.4495V54.7624C22.4495 56.6033 22.0042 58.1436 21.1134 59.3834C20.2226 60.6232 18.9886 61.5531 17.4113 62.173C15.8432 62.8023 14.0385 63.1169 11.9972 63.1169ZM12.1225 49.7328C13.0781 49.7328 13.8854 49.4933 14.5442 49.0142C15.2123 48.5258 15.7226 47.8308 16.0751 46.9291C16.437 46.018 16.618 44.9286 16.618 43.6606C16.618 42.3926 16.4417 41.2937 16.089 40.3638C15.7365 39.4246 15.2261 38.6967 14.5581 38.1801C13.8901 37.6635 13.0781 37.4052 12.1225 37.4052C11.1482 37.4052 10.3271 37.6729 9.65898 38.2083C8.99099 38.7342 8.48525 39.4669 8.14197 40.4061C7.79867 41.3453 7.62702 42.4301 7.62702 43.6606C7.62702 44.9097 7.79867 45.9898 8.14197 46.9009C8.49455 47.8026 9.00022 48.5023 9.65898 49.0001C10.3271 49.4885 11.1482 49.7328 12.1225 49.7328ZM27.1677 54.551V32.911H32.9157V36.6867H33.1384C33.5281 35.3436 34.1822 34.3292 35.1008 33.6435C36.0194 32.9485 37.0772 32.601 38.2741 32.601C38.571 32.601 38.8912 32.6198 39.2344 32.6574C39.5778 32.6949 39.8793 32.7466 40.1391 32.8124V38.1378C39.8608 38.0533 39.4757 37.9782 38.9839 37.9124C38.4921 37.8467 38.0421 37.8138 37.6339 37.8138C36.7617 37.8138 35.9823 38.0064 35.2957 38.3915C34.6183 38.7671 34.0802 39.2931 33.6812 39.9694C33.2915 40.6456 33.0967 41.4252 33.0967 42.3081V54.551H27.1677ZM48.6882 54.9596C47.3242 54.9596 46.1087 54.7201 45.0417 54.2411C43.9746 53.7527 43.1303 53.0342 42.5086 52.0855C41.8963 51.1276 41.5901 49.9347 41.5901 48.507C41.5901 47.3048 41.8081 46.2952 42.2442 45.478C42.6803 44.6609 43.2741 44.0034 44.0256 43.5056C44.7772 43.0078 45.6308 42.6321 46.5866 42.3785C47.5515 42.1249 48.5629 41.9465 49.6206 41.8431C50.8639 41.7116 51.8661 41.5896 52.6269 41.4768C53.3877 41.3547 53.9398 41.1763 54.2831 40.9415C54.6264 40.7067 54.7981 40.3591 54.7981 39.8989V39.8144C54.7981 38.9221 54.5197 38.2318 53.963 37.7434C53.4156 37.255 52.6362 37.0107 51.6249 37.0107C50.5578 37.0107 49.7088 37.2503 49.0778 37.7292C48.4469 38.1989 48.0293 38.7906 47.8252 39.5045L42.3416 39.0536C42.6199 37.7387 43.1674 36.6022 43.9839 35.6442C44.8004 34.6767 45.8536 33.9347 47.1433 33.4181C48.4422 32.8922 49.9454 32.6292 51.6526 32.6292C52.8403 32.6292 53.9769 32.7701 55.0625 33.0518C56.1574 33.3336 57.127 33.7704 57.9714 34.3621C58.825 34.9538 59.4977 35.7146 59.9895 36.6444C60.4812 37.5649 60.7271 38.6685 60.7271 39.9553V54.551H55.1043V51.5502H54.9373C54.5939 52.2264 54.1347 52.8229 53.5594 53.3394C52.9841 53.8466 52.2928 54.2458 51.4856 54.537C50.6784 54.8188 49.7459 54.9596 48.6882 54.9596ZM50.3861 50.8176C51.2583 50.8176 52.0285 50.6438 52.6965 50.2963C53.3645 49.9394 53.8888 49.4604 54.2692 48.8592C54.6496 48.2582 54.8399 47.5772 54.8399 46.8164V44.5199C54.6543 44.6421 54.3991 44.7548 54.0744 44.8581C53.7589 44.952 53.4017 45.0412 53.0027 45.1258C52.6037 45.2009 52.2047 45.2713 51.8057 45.3371C51.4068 45.3935 51.0449 45.4452 50.7202 45.4921C50.0242 45.5954 49.4165 45.7597 48.8969 45.9852C48.3773 46.2106 47.9737 46.5158 47.6861 46.9009C47.3984 47.2767 47.2546 47.7462 47.2546 48.3098C47.2546 49.1269 47.5469 49.7515 48.1314 50.1836C48.7252 50.6063 49.4769 50.8176 50.3861 50.8176ZM76.6978 32.911V37.4193H63.8238V32.911H76.6978ZM66.7465 27.7264H72.6756V47.9012C72.6756 48.4554 72.7591 48.8874 72.9261 49.1974C73.0931 49.498 73.3251 49.7092 73.622 49.8314C73.9282 49.9535 74.2807 50.0145 74.6797 50.0145C74.9581 50.0145 75.2365 49.9911 75.5148 49.944C75.7932 49.8878 76.0065 49.8454 76.1551 49.8173L77.0875 54.2833C76.7906 54.3773 76.3731 54.4853 75.8349 54.6074C75.2967 54.7389 74.6426 54.8188 73.8725 54.8469C72.4436 54.9032 71.191 54.7107 70.1146 54.2693C69.0476 53.8278 68.2172 53.1422 67.6234 52.2124C67.0295 51.2825 66.7373 50.1084 66.7465 48.6902V27.7264ZM80.5601 54.551V32.911H86.4893V54.551H80.5601ZM83.5384 30.1214C82.6574 30.1214 81.9005 29.8255 81.2699 29.2338C80.6482 28.6327 80.3373 27.9142 80.3373 27.0783C80.3373 26.2518 80.6482 25.5426 81.2699 24.9509C81.9005 24.3498 82.6574 24.0493 83.5384 24.0493C84.4202 24.0493 85.1714 24.3498 85.7928 24.9509C86.4239 25.5426 86.7399 26.2518 86.7399 27.0783C86.7399 27.9142 86.4239 28.6327 85.7928 29.2338C85.1714 29.8255 84.4202 30.1214 83.5384 30.1214Z" fill="#6874E8"/>
<path fill-rule="evenodd" clip-rule="evenodd" d="M22.4126 7.00324C22.7072 7.79273 23.1674 8.49988 23.7505 9.08126C16.5633 14.0502 11.1686 21.4802 8.75059 30.1727C7.83407 30.2065 6.92027 30.4409 6.04126 30.8514C8.42113 20.9941 14.3653 12.5518 22.4126 7.00324ZM13.5857 65.7005C16.8632 69.8693 20.9359 73.369 25.5714 75.9644C25.8212 75.1563 26.2413 74.4245 26.7891 73.812C22.8565 71.6155 19.3545 68.7262 16.4435 65.3067C15.575 65.527 14.6243 65.6656 13.5857 65.7005ZM36.2495 80.0491C39.0376 80.6717 41.9349 81 44.908 81C61.1877 81 75.1964 71.1576 81.4437 57.0306H78.7414C72.6661 69.7484 59.7991 78.5204 44.908 78.5204C42.1038 78.5204 39.3713 78.2093 36.7425 77.6194C36.7427 77.6442 36.7429 77.669 36.7429 77.6939C36.7429 78.5326 36.5666 79.3296 36.2495 80.0491ZM44.908 0C60.4869 0 73.9861 9.01332 80.5942 22.1694C79.8396 22.5775 79.1861 23.1521 78.6815 23.8446C72.5819 11.1943 59.7504 2.47959 44.908 2.47959C40.908 2.47959 37.054 3.11256 33.4385 4.28494C33.3408 3.43319 33.0604 2.63785 32.6379 1.94014C36.5045 0.680386 40.6278 0 44.908 0ZM31.0273 4.95918C31.0273 6.78511 29.5651 8.26531 27.7612 8.26531C25.9575 8.26531 24.4952 6.78511 24.4952 4.95918C24.4952 3.13326 25.9575 1.65306 27.7612 1.65306C29.5651 1.65306 31.0273 3.13326 31.0273 4.95918ZM34.2933 77.6939C34.2933 79.5198 32.8311 81 31.0273 81C29.2235 81 27.7612 79.5198 27.7612 77.6939C27.7612 75.868 29.2235 74.3878 31.0273 74.3878C32.8311 74.3878 34.2933 75.868 34.2933 77.6939Z" fill="#6874E8"/>
</svg>
