<svg width="15" height="15" viewBox="0 0 15 15" fill="none" xmlns="http://www.w3.org/2000/svg">
<path d="M0.873807 0.552997C0.790107 0.511134 0.696339 0.493602 0.603168 0.502395C0.509996 0.511188 0.421163 0.545953 0.346773 0.602736C0.272383 0.659519 0.215422 0.736039 0.182369 0.823593C0.149317 0.911147 0.1415 1.00622 0.159807 1.098L1.56281 5.948C1.58897 6.03838 1.6401 6.11955 1.71033 6.18217C1.78056 6.24479 1.86703 6.28632 1.95981 6.302L7.64981 7.255C7.91781 7.308 7.91781 7.692 7.64981 7.745L1.95981 8.698C1.86703 8.71367 1.78056 8.75521 1.71033 8.81783C1.6401 8.88045 1.58897 8.96161 1.56281 9.052L0.159807 13.902C0.1415 13.9938 0.149317 14.0888 0.182369 14.1764C0.215422 14.264 0.272383 14.3405 0.346773 14.3973C0.421163 14.454 0.509996 14.4888 0.603168 14.4976C0.696339 14.5064 0.790107 14.4889 0.873807 14.447L13.8738 7.947C13.9567 7.90543 14.0265 7.8416 14.0752 7.76266C14.124 7.68372 14.1498 7.59277 14.1498 7.5C14.1498 7.40722 14.124 7.31628 14.0752 7.23733C14.0265 7.15839 13.9567 7.09457 13.8738 7.053L0.873807 0.552997Z" fill="white"/>
</svg>
