<svg width="375" height="380" viewBox="0 0 375 380" fill="none" xmlns="http://www.w3.org/2000/svg">
<g opacity="0.4">
<path d="M33.6161 296.104C24.5522 296.104 16.7802 294.848 10.2997 292.336C3.86306 289.869 -1.25994 286.498 -5.06938 282.224C-8.87882 277.95 -11.3527 273.147 -12.4912 267.815L13.3866 264.313C14.1748 266.339 15.4227 268.234 17.1305 269.997C18.8382 271.759 21.0931 273.169 23.8956 274.227C26.7415 275.328 30.2006 275.879 34.2726 275.879C40.3592 275.879 45.3726 274.381 49.3133 271.384C53.2979 268.432 55.2904 263.475 55.2904 256.513V237.941H54.1082C52.8821 240.761 51.043 243.426 48.5908 245.938C46.139 248.45 42.9863 250.499 39.1331 252.085C35.2799 253.671 30.6822 254.464 25.3405 254.464C17.7651 254.464 10.8689 252.702 4.65124 249.177C-1.52269 245.608 -6.44867 240.166 -10.1267 232.851C-13.761 225.493 -15.5781 216.196 -15.5781 204.96C-15.5781 193.459 -13.7172 183.853 -9.99536 176.142C-6.27351 168.431 -1.32563 162.659 4.84825 158.825C11.0659 154.992 17.8749 153.075 25.2746 153.075C30.923 153.075 35.6521 154.045 39.4614 155.983C43.271 157.878 46.3359 160.257 48.6567 163.122C51.021 165.942 52.8382 168.718 54.1082 171.449H55.159V154.397H82.9414V256.91C82.9414 265.546 80.8399 272.773 76.6364 278.589C72.4325 284.405 66.6092 288.767 59.1656 291.676C51.7655 294.628 43.2491 296.104 33.6161 296.104ZM34.2071 233.314C38.7169 233.314 42.5266 232.19 45.6354 229.943C48.7881 227.652 51.1963 224.391 52.8602 220.161C54.5679 215.887 55.4218 210.776 55.4218 204.827C55.4218 198.879 54.5899 193.723 52.9257 189.361C51.2618 184.955 48.8536 181.54 45.7009 179.117C42.5486 176.693 38.7169 175.481 34.2071 175.481C29.6095 175.481 25.7343 176.737 22.5816 179.249C19.4293 181.716 17.0426 185.153 15.4227 189.56C13.8026 193.966 12.9926 199.055 12.9926 204.827C12.9926 210.688 13.8026 215.755 15.4227 220.029C17.0866 224.259 19.4728 227.542 22.5816 229.877C25.7343 232.168 29.6095 233.314 34.2071 233.314ZM105.207 255.918V154.397H132.333V172.111H133.383C135.223 165.81 138.309 161.051 142.644 157.834C146.979 154.573 151.971 152.943 157.619 152.943C159.02 152.943 160.531 153.031 162.151 153.207C163.771 153.384 165.194 153.626 166.42 153.935V178.918C165.107 178.522 163.29 178.169 160.969 177.861C158.648 177.552 156.525 177.398 154.598 177.398C150.482 177.398 146.804 178.301 143.564 180.108C140.367 181.87 137.828 184.338 135.945 187.511C134.106 190.683 133.187 194.34 133.187 198.482V255.918H105.207ZM206.764 257.835C200.328 257.835 194.592 256.711 189.556 254.464C184.521 252.173 180.536 248.802 177.602 244.352C174.713 239.858 173.268 234.261 173.268 227.564C173.268 221.924 174.296 217.187 176.354 213.353C178.412 209.52 181.215 206.435 184.761 204.1C188.308 201.765 192.336 200.002 196.847 198.813C201.4 197.623 206.173 196.786 211.165 196.301C217.032 195.684 221.761 195.111 225.352 194.583C228.942 194.01 231.547 193.173 233.167 192.071C234.788 190.969 235.598 189.339 235.598 187.18V186.784C235.598 182.597 234.284 179.359 231.657 177.068C229.073 174.776 225.395 173.631 220.623 173.631C215.587 173.631 211.581 174.754 208.603 177.001C205.626 179.205 203.655 181.98 202.692 185.33L176.814 183.214C178.128 177.046 180.711 171.714 184.564 167.219C188.418 162.681 193.388 159.2 199.474 156.776C205.604 154.309 212.697 153.075 220.754 153.075C226.359 153.075 231.722 153.736 236.846 155.058C242.012 156.38 246.588 158.429 250.573 161.205C254.601 163.981 257.775 167.55 260.096 171.912C262.417 176.23 263.577 181.408 263.577 187.444V255.918H237.043V241.84H236.255C234.634 245.013 232.467 247.811 229.752 250.234C227.037 252.614 223.775 254.486 219.966 255.852C216.157 257.174 211.756 257.835 206.764 257.835ZM214.777 238.403C218.893 238.403 222.527 237.588 225.68 235.958C228.832 234.284 231.307 232.036 233.102 229.216C234.897 226.396 235.795 223.202 235.795 219.632V208.859C234.919 209.432 233.715 209.96 232.182 210.445C230.694 210.886 229.008 211.304 227.125 211.701C225.242 212.054 223.359 212.384 221.476 212.693C219.594 212.957 217.886 213.199 216.353 213.42C213.069 213.904 210.201 214.675 207.749 215.733C205.297 216.79 203.393 218.222 202.035 220.029C200.678 221.792 199.999 223.994 199.999 226.639C199.999 230.472 201.378 233.402 204.137 235.429C206.939 237.412 210.486 238.403 214.777 238.403ZM338.945 154.397V175.547H278.191V154.397H338.945ZM291.984 130.074H319.963V224.722C319.963 227.321 320.357 229.348 321.145 230.802C321.934 232.213 323.028 233.204 324.43 233.777C325.874 234.349 327.538 234.636 329.421 234.636C330.735 234.636 332.048 234.526 333.362 234.305C334.676 234.041 335.682 233.843 336.383 233.71L340.784 254.662C339.383 255.103 337.412 255.61 334.872 256.183C332.333 256.8 329.246 257.174 325.612 257.307C318.869 257.571 312.957 256.668 307.878 254.597C302.843 252.526 298.924 249.309 296.122 244.947C293.319 240.585 291.94 235.077 291.984 228.423V130.074ZM357.171 255.918V154.397H385.152V255.918H357.171ZM371.226 141.31C367.068 141.31 363.496 139.922 360.521 137.146C357.587 134.326 356.12 130.955 356.12 127.034C356.12 123.156 357.587 119.83 360.521 117.054C363.496 114.233 367.068 112.824 371.226 112.824C375.387 112.824 378.932 114.233 381.865 117.054C384.843 119.83 386.334 123.156 386.334 127.034C386.334 130.955 384.843 134.326 381.865 137.146C378.932 139.922 375.387 141.31 371.226 141.31Z" fill="url(#paint0_linear_1455_4878)"/>
<path fill-rule="evenodd" clip-rule="evenodd" d="M82.7673 32.8547C84.1576 36.5585 86.3296 39.876 89.0812 42.6034C55.1641 65.9145 29.7059 100.771 18.295 141.551C13.9699 141.709 9.65754 142.809 5.5094 144.735C16.7402 98.491 44.7912 58.8849 82.7673 32.8547ZM41.1122 308.225C56.5794 327.782 75.7988 344.2 97.6742 356.376C98.8529 352.585 100.835 349.152 103.421 346.278C84.8623 335.974 68.3359 322.419 54.5988 306.377C50.5001 307.411 46.0135 308.061 41.1122 308.225ZM148.065 375.539C161.223 378.46 174.895 380 188.926 380C265.751 380 331.859 333.826 361.341 267.551H348.589C319.919 327.215 259.198 368.367 188.926 368.367C175.692 368.367 162.797 366.908 150.392 364.14C150.393 364.257 150.393 364.373 150.393 364.49C150.393 368.424 149.562 372.163 148.065 375.539ZM188.926 0C262.444 0 326.148 42.2847 357.332 104.004C353.771 105.919 350.687 108.615 348.306 111.863C319.521 52.5164 258.968 11.6327 188.926 11.6327C170.049 11.6327 151.862 14.6021 134.8 20.1022C134.339 16.1063 133.016 12.3751 131.022 9.10189C149.268 3.19193 168.727 0 188.926 0ZM123.421 23.2653C123.421 31.8314 116.521 38.7755 108.008 38.7755C99.496 38.7755 92.5953 31.8314 92.5953 23.2653C92.5953 14.6993 99.496 7.7551 108.008 7.7551C116.521 7.7551 123.421 14.6993 123.421 23.2653ZM138.834 364.49C138.834 373.056 131.934 380 123.421 380C114.909 380 108.008 373.056 108.008 364.49C108.008 355.924 114.909 348.98 123.421 348.98C131.934 348.98 138.834 355.924 138.834 364.49Z" fill="url(#paint1_linear_1455_4878)"/>
</g>
<defs>
<linearGradient id="paint0_linear_1455_4878" x1="185.378" y1="112.824" x2="185.378" y2="296.104" gradientUnits="userSpaceOnUse">
<stop stop-color="#6874E8"/>
<stop offset="1" stop-color="#6874E8" stop-opacity="0"/>
</linearGradient>
<linearGradient id="paint1_linear_1455_4878" x1="183.425" y1="0" x2="183" y2="288" gradientUnits="userSpaceOnUse">
<stop stop-color="#6874E8"/>
<stop offset="1" stop-color="#6874E8" stop-opacity="0"/>
</linearGradient>
</defs>
</svg>
