<svg width="21" height="21" viewBox="0 0 21 21" fill="none" xmlns="http://www.w3.org/2000/svg">
<path d="M8.86025 5.0625L7.23525 6.6875H4.125V16.4375H17.125V6.6875H14.0148L12.3897 5.0625H8.86025ZM8.1875 3.4375H13.0625L14.6875 5.0625H17.9375C18.153 5.0625 18.3597 5.1481 18.512 5.30048C18.6644 5.45285 18.75 5.65951 18.75 5.875V17.25C18.75 17.4655 18.6644 17.6722 18.512 17.8245C18.3597 17.9769 18.153 18.0625 17.9375 18.0625H3.3125C3.09701 18.0625 2.89035 17.9769 2.73798 17.8245C2.5856 17.6722 2.5 17.4655 2.5 17.25V5.875C2.5 5.65951 2.5856 5.45285 2.73798 5.30048C2.89035 5.1481 3.09701 5.0625 3.3125 5.0625H6.5625L8.1875 3.4375ZM10.625 15.625C9.43981 15.625 8.30317 15.1542 7.46512 14.3161C6.62706 13.4781 6.15625 12.3414 6.15625 11.1562C6.15625 9.97106 6.62706 8.83442 7.46512 7.99637C8.30317 7.15831 9.43981 6.6875 10.625 6.6875C11.8102 6.6875 12.9468 7.15831 13.7849 7.99637C14.6229 8.83442 15.0938 9.97106 15.0938 11.1562C15.0938 12.3414 14.6229 13.4781 13.7849 14.3161C12.9468 15.1542 11.8102 15.625 10.625 15.625ZM10.625 14C11.3792 14 12.1025 13.7004 12.6358 13.1671C13.1691 12.6338 13.4688 11.9105 13.4688 11.1562C13.4688 10.402 13.1691 9.67872 12.6358 9.14542C12.1025 8.61211 11.3792 8.3125 10.625 8.3125C9.87079 8.3125 9.14747 8.61211 8.61417 9.14542C8.08086 9.67872 7.78125 10.402 7.78125 11.1562C7.78125 11.9105 8.08086 12.6338 8.61417 13.1671C9.14747 13.7004 9.87079 14 10.625 14Z" fill="white"/>
<path d="M2.5 1.40625H18.75V0.59375H2.5V1.40625ZM19.9688 2.625V18.875H20.7812V2.625H19.9688ZM18.75 20.0938H2.5V20.9062H18.75V20.0938ZM1.28125 18.875V2.625H0.46875V18.875H1.28125ZM2.5 20.0938C1.8269 20.0938 1.28125 19.5481 1.28125 18.875H0.46875C0.46875 19.9968 1.37817 20.9062 2.5 20.9062V20.0938ZM19.9688 18.875C19.9688 19.5481 19.4231 20.0938 18.75 20.0938V20.9062C19.8718 20.9062 20.7812 19.9968 20.7812 18.875H19.9688ZM18.75 1.40625C19.4231 1.40625 19.9688 1.9519 19.9688 2.625H20.7812C20.7812 1.50317 19.8718 0.59375 18.75 0.59375V1.40625ZM2.5 0.59375C1.37817 0.59375 0.46875 1.50317 0.46875 2.625H1.28125C1.28125 1.9519 1.8269 1.40625 2.5 1.40625V0.59375Z" fill="#6874E8"/>
</svg>
