<svg width="21" height="22" viewBox="0 0 21 22" fill="none" xmlns="http://www.w3.org/2000/svg">
<path fill-rule="evenodd" clip-rule="evenodd" d="M10.5 21.5C16.299 21.5 21 16.799 21 11C21 5.20104 16.299 0.500031 10.5 0.500031C4.70101 0.500031 0 5.20104 0 11C0 16.799 4.70101 21.5 10.5 21.5ZM10.5 12.75C8.38659 12.75 6.98426 12.5039 5.25001 12.1667C4.85393 12.0903 4.08334 12.1667 4.08334 13.3334C4.08334 15.6667 6.76376 18.5834 10.5 18.5834C14.2357 18.5834 16.9167 15.6667 16.9167 13.3334C16.9167 12.1667 16.1461 12.0897 15.75 12.1667C14.0158 12.5039 12.6134 12.75 10.5 12.75ZM8.45832 8.37501C8.45832 9.50259 7.80541 10.4167 6.99999 10.4167C6.19457 10.4167 5.54166 9.50259 5.54166 8.37501C5.54166 7.24743 6.19457 6.33334 6.99999 6.33334C7.80541 6.33334 8.45832 7.24743 8.45832 8.37501ZM14 10.4167C14.8054 10.4167 15.4583 9.50259 15.4583 8.37501C15.4583 7.24743 14.8054 6.33334 14 6.33334C13.1946 6.33334 12.5417 7.24743 12.5417 8.37501C12.5417 9.50259 13.1946 10.4167 14 10.4167ZM10.5 13.9167C7 13.9167 5.25 13.3333 5.25 13.3333C5.25 13.3333 6.41667 15.6667 10.5 15.6667C14.5833 15.6667 15.75 13.3333 15.75 13.3333C15.75 13.3333 14 13.9167 10.5 13.9167Z" fill="#C4C4C4"/>
</svg>
