<svg width="101" height="22" viewBox="0 0 101 22" fill="none" xmlns="http://www.w3.org/2000/svg">
<rect x="0.35" y="0.350031" width="46.6077" height="21.3" rx="7.65" fill="#4B5066" fill-opacity="0.05"/>
<path d="M22.6269 15.3536C22.6284 15.4948 22.592 15.6794 22.5541 15.8315C22.2892 16.9016 21.1129 18.1023 19.4571 17.9931C17.9566 17.8943 16.7344 17.174 16.7344 16.1638C16.7344 15.1536 17.9536 14.3345 19.4571 14.3345C20.9607 14.3345 22.6174 14.3434 22.6269 15.3536Z" fill="#EA596E"/>
<path d="M19.4571 14.5041C18.6495 14.5041 16.8062 14.7276 16.3832 14.7276C15.6359 14.7276 15.0298 15.1965 15.0298 15.7752C15.0298 16.0535 15.1725 16.305 15.4009 16.4925C15.4009 16.4925 15.9028 16.9959 16.8067 16.7544C17.2023 16.6487 17.8458 15.8635 18.9787 15.7388C19.543 15.6764 20.6 16.1129 22.4578 16.1234C22.5376 15.9518 22.5541 15.8325 22.5541 15.8325C22.5541 14.8214 20.9607 14.5041 19.4571 14.5041Z" fill="#DD2E44"/>
<path d="M22.5541 15.8315C22.5541 15.8315 23.6436 15.6106 24.321 14.7196C25.1107 13.6805 25.007 12.5685 25.007 12.5685C25.8071 11.0719 24.7575 9.66866 24.7575 9.66866C24.6533 8.08877 23.6765 7.43427 23.6765 7.43427C23.0425 5.92722 21.6397 5.52215 21.6397 5.52215C20.5382 4.2336 18.5842 4.275 18.5842 4.275C18.5842 4.275 16.7534 3.60404 14.2401 4.35831C13.8246 4.48303 12.4318 4.77386 11.4131 5.39743C8.20244 7.36294 7.9595 10.4279 8.00439 10.9263C8.25332 13.7114 10.2074 14.2103 11.4545 14.5011C11.7453 15.2908 12.8159 16.746 14.7385 16.2057C17.1081 15.7901 18.1058 15.0833 18.6879 15.0833C19.2701 15.0833 20.8914 15.7068 22.5541 15.8315Z" fill="#F4ABBA"/>
<path d="M16.5613 11.3533C17.7226 10.7272 18.3522 10.7856 18.9079 10.8359C19.0845 10.8519 19.2516 10.8644 19.4207 10.8634C20.4105 10.8409 21.2121 10.4239 21.5668 10.0203C21.6075 9.97016 21.6272 9.90622 21.6218 9.84188C21.6163 9.77754 21.5862 9.71779 21.5377 9.67517C21.4892 9.63254 21.4261 9.61033 21.3616 9.6132C21.2971 9.61607 21.2362 9.6438 21.1917 9.69057C20.9183 10.0019 20.2444 10.3456 19.4093 10.3645C19.2596 10.369 19.1095 10.354 18.9538 10.3396C18.3577 10.2842 17.6174 10.2164 16.3243 10.9143C15.9926 11.0934 15.5376 11.1597 15.0448 11.2096C13.9488 9.62771 14.6083 8.24987 14.7968 7.92162C14.8153 7.92261 14.8332 7.9286 14.8522 7.9286C15.0517 7.9286 15.2523 7.87971 15.4339 7.77695C15.4892 7.74327 15.5292 7.6894 15.5455 7.62672C15.5619 7.56405 15.5532 7.49749 15.5213 7.44111C15.4894 7.38474 15.4368 7.34298 15.3747 7.32466C15.3126 7.30634 15.2458 7.31289 15.1884 7.34294C15.0315 7.42933 14.8477 7.45333 14.6739 7.41015C14.5 7.36696 14.3488 7.25976 14.2506 7.10997C14.2135 7.05767 14.1577 7.02165 14.0947 7.00942C14.0318 6.99718 13.9665 7.00966 13.9125 7.04426C13.8585 7.07886 13.8199 7.13293 13.8048 7.19524C13.7896 7.25755 13.799 7.3233 13.831 7.37886C13.9493 7.56394 14.1159 7.70312 14.304 7.7964C14.044 8.32419 13.5507 9.71202 14.4895 11.264C13.829 11.3288 13.1676 11.4221 12.6497 11.7558C12.2858 11.9943 11.9683 12.2971 11.7129 12.6493C11.3991 12.5954 10.2502 12.3126 10.0497 11.0375C10.1744 10.9407 10.2752 10.813 10.3375 10.6554C10.3496 10.6249 10.3555 10.5924 10.355 10.5596C10.3545 10.5268 10.3475 10.4945 10.3345 10.4644C10.3215 10.4344 10.3027 10.4072 10.2791 10.3844C10.2556 10.3616 10.2278 10.3437 10.1974 10.3316C10.1669 10.3195 10.1344 10.3136 10.1016 10.3141C10.0688 10.3147 10.0365 10.3216 10.0064 10.3346C9.97638 10.3477 9.94917 10.3665 9.92638 10.39C9.90359 10.4135 9.88565 10.4413 9.8736 10.4718C9.85473 10.5242 9.82471 10.5719 9.78561 10.6116C9.74651 10.6513 9.69926 10.6821 9.64712 10.7018C9.59428 10.7193 9.53828 10.7253 9.48293 10.7193C9.42757 10.7132 9.37417 10.6953 9.32635 10.6668C9.29772 10.6509 9.26624 10.6408 9.2337 10.637C9.20116 10.6333 9.16819 10.636 9.13669 10.645C9.07308 10.6631 9.01928 10.7058 8.98713 10.7636C8.95498 10.8214 8.94711 10.8896 8.96526 10.9533C8.98341 11.0169 9.02609 11.0707 9.0839 11.1028C9.22558 11.1817 9.37723 11.2216 9.52789 11.2216C9.54635 11.2216 9.56381 11.2131 9.58226 11.2121C9.81972 12.4158 10.771 12.9446 11.444 13.1048C11.3559 13.2923 11.3001 13.4933 11.2789 13.6994C11.2731 13.7653 11.2937 13.8308 11.3361 13.8815C11.3786 13.9322 11.4395 13.9639 11.5054 13.9698L11.5278 13.9708C11.5902 13.9708 11.6502 13.9474 11.6962 13.9053C11.7422 13.8632 11.7708 13.8054 11.7762 13.7433C11.8301 13.1382 12.4073 12.5061 12.9201 12.1744C13.401 11.8646 14.1049 11.7992 14.7863 11.7359C15.4473 11.6755 16.0719 11.6177 16.5613 11.3533ZM22.9796 10.603C22.9639 10.6317 22.954 10.6633 22.9504 10.6959C22.9469 10.7285 22.9499 10.7614 22.9591 10.7929C22.9683 10.8244 22.9836 10.8537 23.0042 10.8792C23.0247 10.9047 23.0501 10.926 23.0789 10.9417C23.1076 10.9574 23.1392 10.9673 23.1718 10.9709C23.2044 10.9744 23.2373 10.9714 23.2688 10.9622C23.3323 10.9436 23.3858 10.9005 23.4176 10.8424C23.4271 10.8255 24.3365 9.12187 22.6339 7.97699C22.579 7.94008 22.5117 7.92649 22.4467 7.93921C22.3818 7.95193 22.3246 7.98993 22.2877 8.04483C22.2508 8.09974 22.2372 8.16706 22.2499 8.23199C22.2626 8.29692 22.3006 8.35413 22.3555 8.39104C23.6745 9.27801 23.0085 10.5491 22.9796 10.603ZM12.6398 6.5752C12.6794 6.57533 12.7184 6.56598 12.7536 6.54793C12.7889 6.52988 12.8193 6.50365 12.8423 6.47144C13.5656 5.46524 14.5674 5.80945 14.6098 5.82542C14.6712 5.84569 14.7381 5.84131 14.7964 5.81318C14.8546 5.78505 14.8997 5.73538 14.922 5.67466C14.9444 5.61393 14.9422 5.54691 14.9161 5.48773C14.8899 5.42855 14.8418 5.38185 14.7819 5.35749C14.303 5.17989 13.197 5.12402 12.4372 6.1806C12.4106 6.21787 12.3947 6.26176 12.3913 6.30746C12.3879 6.35316 12.3972 6.3989 12.4182 6.43967C12.4391 6.48044 12.4708 6.51465 12.5099 6.53856C12.549 6.56247 12.5939 6.57514 12.6398 6.5752ZM19.1608 5.63335C20.2708 5.54306 20.7756 6.34772 20.7986 6.38563C20.8321 6.44272 20.887 6.48415 20.9511 6.5008C20.9828 6.50905 21.0158 6.51096 21.0483 6.50644C21.0808 6.50191 21.112 6.49104 21.1403 6.47443C21.1686 6.45782 21.1933 6.43581 21.2131 6.40965C21.2328 6.38349 21.2472 6.35369 21.2555 6.32196C21.2637 6.29023 21.2656 6.25718 21.2611 6.22471C21.2566 6.19224 21.2457 6.16098 21.2291 6.13271C21.2022 6.08732 20.5606 5.02624 19.1219 5.13599C19.0893 5.13855 19.0574 5.14751 19.0282 5.16237C18.999 5.17723 18.9731 5.19769 18.9518 5.22259C18.9088 5.27287 18.8875 5.33818 18.8927 5.40413C18.8979 5.47008 18.929 5.53129 18.9793 5.57428C19.0296 5.61726 19.0949 5.63851 19.1608 5.63335ZM23.7254 12.9222C23.6027 12.9152 23.4675 13.0125 23.4565 13.1501C23.4555 13.1591 23.3762 14.0077 22.5037 14.2945C22.4466 14.3125 22.3979 14.3503 22.3665 14.4012C22.3351 14.4521 22.323 14.5125 22.3325 14.5716C22.342 14.6306 22.3725 14.6843 22.4183 14.7227C22.4641 14.7611 22.5222 14.7818 22.582 14.7809C22.6084 14.7809 22.6347 14.7767 22.6598 14.7684C23.8431 14.3803 23.9499 13.2399 23.9539 13.1916C23.9591 13.1256 23.938 13.0602 23.8952 13.0097C23.8524 12.9592 23.7913 12.9278 23.7254 12.9222Z" fill="#EA596E"/>
<path d="M11.3782 10.4982C11.3684 10.5302 11.3651 10.5638 11.3686 10.5971C11.372 10.6304 11.3822 10.6627 11.3984 10.692C11.4146 10.7213 11.4365 10.747 11.4628 10.7676C11.4892 10.7883 11.5194 10.8034 11.5518 10.8121C11.5841 10.8208 11.6178 10.8229 11.651 10.8183C11.6841 10.8137 11.716 10.8025 11.7448 10.7853C11.7735 10.7681 11.7984 10.7453 11.8182 10.7183C11.8379 10.6912 11.852 10.6605 11.8596 10.6279C11.9076 10.455 12.0193 10.3068 12.1722 10.2129C12.3251 10.1191 12.5078 10.0866 12.6837 10.122C12.7158 10.1287 12.7488 10.1291 12.781 10.123C12.8132 10.1169 12.8439 10.1046 12.8713 10.0867C12.8988 10.0687 12.9224 10.0456 12.9409 10.0185C12.9593 9.99147 12.9723 9.96104 12.979 9.92897C12.9857 9.89691 12.9861 9.86383 12.98 9.83163C12.9739 9.79944 12.9616 9.76875 12.9436 9.74133C12.9257 9.7139 12.9026 9.69028 12.8755 9.6718C12.8485 9.65333 12.818 9.64036 12.786 9.63365C12.5784 9.59154 12.3632 9.60636 12.1634 9.67655C11.5817 8.68183 11.695 7.70107 11.6965 7.6906C11.705 7.62509 11.6873 7.55886 11.6472 7.50635C11.6071 7.45384 11.5479 7.41929 11.4824 7.41024C11.4171 7.40184 11.3511 7.41946 11.2986 7.45932C11.2462 7.49917 11.2115 7.55805 11.2021 7.62325C11.1956 7.67164 11.0624 8.77861 11.7324 9.92498C11.5613 10.0778 11.4383 10.2769 11.3782 10.4982ZM16.9549 9.26599C17.0545 9.17538 17.1847 9.12579 17.3193 9.12718C17.4539 9.12857 17.5831 9.18083 17.6808 9.27347C17.7284 9.31927 17.7922 9.34439 17.8582 9.34336C17.9243 9.34233 17.9873 9.31524 18.0334 9.26799C18.0795 9.22055 18.1049 9.15675 18.104 9.09061C18.1031 9.02446 18.0759 8.9614 18.0285 8.91529C17.9158 8.8081 17.7796 8.72867 17.6309 8.68332C17.7785 8.17648 17.7202 7.9515 17.583 7.52996C17.5558 7.44749 17.5297 7.36467 17.5047 7.28153L17.4897 7.23165C17.3081 6.62903 17.1879 6.23144 17.5331 5.67022C17.5678 5.61386 17.5786 5.54604 17.5633 5.48167C17.5479 5.41731 17.5076 5.36167 17.4513 5.32701C17.3949 5.29234 17.3271 5.28149 17.2627 5.29683C17.1984 5.31217 17.1427 5.35246 17.1081 5.40882C16.6451 6.1611 16.8152 6.72431 17.0123 7.37632L17.0272 7.4262C17.0567 7.52298 17.0836 7.60779 17.1086 7.68411C17.2318 8.06374 17.2692 8.19095 17.1185 8.6499C16.9301 8.68418 16.7554 8.77139 16.6147 8.90133C16.5681 8.94685 16.5411 9.00883 16.5396 9.07398C16.5381 9.13914 16.5621 9.2023 16.6066 9.24995C16.651 9.2976 16.7124 9.32596 16.7775 9.32896C16.8426 9.33196 16.9063 9.30936 16.9549 9.26599ZM20.1301 7.7769C20.2783 7.77735 20.4247 7.7448 20.5587 7.68162C20.6185 7.65344 20.6648 7.60263 20.6872 7.54037C20.7096 7.47811 20.7063 7.4095 20.6781 7.34963C20.65 7.28976 20.5991 7.24354 20.5369 7.22113C20.4746 7.19873 20.406 7.20197 20.3461 7.23015C20.2235 7.28618 20.0843 7.29382 19.9562 7.25155C19.8282 7.20927 19.7209 7.12021 19.6557 7.00217C19.6409 6.9722 19.6202 6.94552 19.5949 6.92371C19.5695 6.90189 19.54 6.8854 19.5082 6.87521C19.4764 6.86501 19.4428 6.86133 19.4095 6.86437C19.3762 6.8674 19.3438 6.87711 19.3144 6.8929C19.2849 6.90869 19.2589 6.93025 19.2379 6.95628C19.2169 6.98232 19.2014 7.01231 19.1923 7.04447C19.1831 7.07663 19.1805 7.11031 19.1846 7.14349C19.1887 7.17667 19.1995 7.20869 19.2162 7.23763C19.306 7.40525 19.4397 7.53745 19.5954 7.62924C19.3275 8.28025 19.4796 8.97166 19.6038 9.33833C19.6133 9.3705 19.6292 9.40043 19.6506 9.42632C19.6719 9.45221 19.6983 9.47353 19.728 9.48901C19.7578 9.50448 19.7904 9.51379 19.8238 9.51638C19.8573 9.51897 19.8909 9.51478 19.9227 9.50407C19.9545 9.49336 19.9838 9.47635 20.0089 9.45405C20.0339 9.43175 20.0542 9.40462 20.0686 9.37429C20.0829 9.34396 20.091 9.31105 20.0923 9.27752C20.0936 9.244 20.0882 9.21056 20.0763 9.17919C19.9925 8.93076 19.8298 8.30319 20.0753 7.76942C20.0942 7.77041 20.1117 7.7769 20.1301 7.7769ZM22.5232 12.4806C22.5213 12.4479 22.5129 12.4158 22.4985 12.3863C22.4841 12.3568 22.464 12.3305 22.4394 12.3088C22.4147 12.2871 22.386 12.2706 22.355 12.2601C22.3239 12.2496 22.291 12.2454 22.2583 12.2477C22.1387 12.2559 22.0186 12.2405 21.905 12.2022C21.7913 12.164 21.6864 12.1036 21.5961 12.0247C21.5059 11.9457 21.4321 11.8498 21.3791 11.7422C21.326 11.6347 21.2947 11.5178 21.287 11.3981C21.2814 11.3325 21.2505 11.2717 21.2009 11.2284C21.1513 11.1851 21.0868 11.1628 21.0211 11.1661C20.9552 11.1709 20.8938 11.2015 20.8503 11.2513C20.8069 11.3011 20.7849 11.3661 20.7891 11.432C20.8096 11.7264 20.9218 11.9918 21.0924 12.2078C20.6914 12.6797 20.1661 12.8139 19.8732 12.8483C19.6143 12.8792 19.3878 12.8528 19.1259 12.8218C18.886 12.7944 18.6146 12.763 18.2789 12.773L18.2764 12.7735C18.2664 12.6308 18.2325 12.4228 18.1242 12.2497C18.087 12.1984 18.0317 12.1632 17.9695 12.1511C17.9074 12.1391 17.8429 12.1511 17.7892 12.1847C17.7356 12.2184 17.6967 12.2712 17.6804 12.3324C17.6642 12.3936 17.6718 12.4587 17.7017 12.5146C17.7686 12.6218 17.781 12.7929 17.781 12.8762C17.5296 12.9665 17.3121 13.0992 17.1155 13.2274C16.7643 13.4559 16.4875 13.6365 16.0709 13.5427C15.6938 13.4564 15.3162 13.4389 14.9959 13.4838C14.946 13.3586 14.8672 13.209 14.7455 13.0937C14.6974 13.0483 14.6332 13.0238 14.5671 13.0257C14.5009 13.0275 14.4382 13.0556 14.3928 13.1037C14.3473 13.1518 14.3229 13.216 14.3247 13.2821C14.3266 13.3483 14.3547 13.411 14.4028 13.4564C14.4457 13.4968 14.4796 13.5557 14.507 13.6145C13.9568 13.841 13.6809 14.2197 13.6679 14.2381C13.6415 14.2754 13.6258 14.3192 13.6226 14.3648C13.6193 14.4103 13.6287 14.4559 13.6497 14.4965C13.6707 14.5371 13.7024 14.5712 13.7414 14.5949C13.7805 14.6187 13.8253 14.6312 13.871 14.6312C13.9104 14.6313 13.9493 14.6221 13.9845 14.6043C14.0197 14.5866 14.0502 14.5607 14.0735 14.5289C14.076 14.525 14.3499 14.1583 14.8901 14.0101C15.1695 13.9333 15.5701 13.9398 15.9607 14.0286C16.0699 14.0535 16.1712 14.062 16.2695 14.0635C16.3159 14.1723 16.3338 14.3015 16.3363 14.3494C16.34 14.4129 16.3678 14.4727 16.4141 14.5165C16.4604 14.5602 16.5216 14.5847 16.5853 14.5848L16.5987 14.5843C16.6646 14.5808 16.7263 14.5514 16.7705 14.5025C16.8147 14.4537 16.8378 14.3893 16.8347 14.3234C16.8264 14.2072 16.8046 14.0924 16.7698 13.9812C16.9998 13.8979 17.1999 13.7677 17.3879 13.6455C17.6733 13.4594 17.9432 13.2833 18.2958 13.2718C18.5912 13.2613 18.8346 13.2898 19.0696 13.3172C19.306 13.3447 19.5385 13.3626 19.7949 13.3476C19.8403 13.4739 19.8368 13.6425 19.8298 13.6988C19.8256 13.734 19.8289 13.7696 19.8394 13.8034C19.8499 13.8371 19.8674 13.8683 19.8909 13.8948C19.9143 13.9214 19.943 13.9426 19.9752 13.9573C20.0074 13.9719 20.0424 13.9795 20.0778 13.9797C20.1382 13.9796 20.1966 13.9576 20.242 13.9176C20.2875 13.8777 20.3168 13.8227 20.3247 13.7627C20.343 13.5991 20.333 13.4336 20.2953 13.2733C20.7504 13.1526 21.1583 12.8967 21.4651 12.5395C21.7124 12.6923 22.0011 12.7643 22.2912 12.7455C22.3238 12.7434 22.3557 12.7348 22.385 12.7203C22.4143 12.7058 22.4405 12.6857 22.4621 12.6611C22.4836 12.6365 22.5001 12.6079 22.5106 12.577C22.5211 12.546 22.5253 12.5133 22.5232 12.4806Z" fill="#EA596E"/>
<path d="M34.2879 15L37.5407 8.56537V8.50855H33.7907V7.7273H38.4498V8.55117L35.2111 15H34.2879Z" fill="#2D3142"/>
<rect x="0.35" y="0.350031" width="46.6077" height="21.3" rx="7.65" stroke="#4B5066" stroke-width="0.7"/>
<rect x="55.6577" y="0.350031" width="44.3152" height="21.3" rx="7.65" fill="#4B5066" fill-opacity="0.05"/>
<path d="M75.8874 13.4766C75.6164 13.0828 75.7677 12.5135 75.7002 11.885C75.6308 10.8595 75.1902 9.86598 74.3355 9.07132L71.4244 6.36452C71.4244 6.36452 70.8508 5.83072 70.3166 6.40468C69.7832 6.97825 70.3572 7.51204 70.3572 7.51204L71.587 8.65606L72.653 9.64723C72.653 9.64723 72.3859 9.93421 71.206 8.83698L67.2211 5.13043C67.2211 5.13043 66.6467 4.59702 66.1129 5.17098C65.5795 5.74455 66.1531 6.27834 66.1531 6.27834L69.9213 9.78331C69.9131 9.77551 69.6362 10.0531 69.6312 10.0485L65.5994 6.29862C65.5994 6.29862 65.0255 5.76482 64.4917 6.33878C63.9579 6.91274 64.5318 7.44615 64.5318 7.44615L68.564 11.1968C68.5686 11.2014 68.3089 11.4947 68.3167 11.5021L64.8387 8.26653C64.8387 8.26653 64.2647 7.73274 63.7309 8.3067C63.1971 8.88065 63.7711 9.41445 63.7711 9.41445L67.4691 12.8535C67.503 12.8851 67.2741 13.2076 67.3166 13.247L64.6519 10.7686C64.6519 10.7686 64.078 10.2348 63.5442 10.8092C63.0104 11.3831 63.5843 11.9169 63.5843 11.9169L67.9307 15.9577C68.6564 16.6326 69.4015 16.9742 70.2999 17.0993C70.4827 17.1247 70.7167 17.1247 70.8126 17.1368C71.1156 17.175 71.3815 17.2826 71.7375 17.501C72.1956 17.7817 72.8831 17.8987 73.2781 17.4764L74.6248 16.0356L75.8683 14.7052C76.2629 14.2834 76.1923 13.9192 75.8874 13.4766Z" fill="#EF9645"/>
<path d="M64.055 17.6405C63.9778 17.6407 63.9023 17.6179 63.8381 17.5751C63.7739 17.5323 63.7238 17.4714 63.6943 17.4001C63.6647 17.3287 63.657 17.2503 63.6722 17.1746C63.6873 17.0989 63.7246 17.0294 63.7793 16.9749L65.1639 15.5911C65.2001 15.5549 65.2431 15.5262 65.2904 15.5066C65.3377 15.487 65.3884 15.4769 65.4396 15.4769C65.4908 15.4769 65.5415 15.487 65.5888 15.5066C65.6361 15.5262 65.6791 15.5549 65.7153 15.5911C65.7515 15.6273 65.7802 15.6703 65.7998 15.7176C65.8194 15.7649 65.8295 15.8156 65.8295 15.8668C65.8295 15.918 65.8194 15.9687 65.7998 16.016C65.7802 16.0633 65.7515 16.1063 65.7153 16.1425L64.3307 17.5267C64.2945 17.5629 64.2515 17.5916 64.2042 17.6111C64.1569 17.6307 64.1062 17.6407 64.055 17.6405ZM66.6854 18C66.6231 18.0001 66.5617 17.9853 66.5063 17.9567C66.4509 17.9282 66.4032 17.8868 66.3672 17.836C66.3311 17.7852 66.3078 17.7265 66.2991 17.6648C66.2904 17.6031 66.2967 17.5402 66.3173 17.4814L66.6959 16.4002C66.7117 16.3504 66.7372 16.3043 66.7711 16.2646C66.805 16.2249 66.8465 16.1924 66.8932 16.1691C66.9399 16.1457 66.9907 16.132 67.0428 16.1287C67.0949 16.1253 67.1471 16.1325 67.1964 16.1497C67.2457 16.167 67.291 16.1939 67.3296 16.229C67.3683 16.264 67.3995 16.3065 67.4215 16.3539C67.4434 16.4012 67.4556 16.4525 67.4574 16.5047C67.4591 16.5568 67.4504 16.6088 67.4317 16.6575L67.0531 17.7388C67.0264 17.8151 66.9767 17.8812 66.9108 17.928C66.845 17.9748 66.7662 18 66.6854 18ZM63.6959 15.0105C63.6042 15.01 63.5156 14.9772 63.4456 14.9179C63.3757 14.8586 63.3288 14.7766 63.3133 14.6862C63.2979 14.5958 63.3147 14.5028 63.3609 14.4236C63.4071 14.3444 63.4797 14.2839 63.566 14.2529L64.5389 13.9094C64.5872 13.8924 64.6383 13.885 64.6895 13.8877C64.7406 13.8904 64.7907 13.9032 64.8369 13.9253C64.8831 13.9474 64.9245 13.9783 64.9587 14.0164C64.993 14.0545 65.0194 14.099 65.0364 14.1473C65.0535 14.1955 65.0608 14.2467 65.0581 14.2978C65.0554 14.349 65.0426 14.3991 65.0205 14.4453C64.9985 14.4915 64.9675 14.5329 64.9294 14.5671C64.8913 14.6013 64.8469 14.6277 64.7986 14.6448L63.8257 14.9883C63.784 15.003 63.7401 15.0105 63.6959 15.0105ZM75.1829 6.52319C75.1057 6.52326 75.0302 6.50041 74.966 6.45754C74.9018 6.41468 74.8518 6.35372 74.8223 6.28241C74.7928 6.21109 74.7851 6.13261 74.8002 6.05692C74.8153 5.98123 74.8525 5.91173 74.9072 5.85722L76.2922 4.47301C76.3653 4.3999 76.4646 4.35884 76.568 4.35888C76.6714 4.35891 76.7706 4.40004 76.8437 4.4732C76.9168 4.54637 76.9579 4.64558 76.9578 4.74901C76.9578 4.85245 76.9167 4.95163 76.8435 5.02474L75.4585 6.40895C75.4224 6.44528 75.3795 6.47409 75.3321 6.4937C75.2848 6.51331 75.2341 6.52333 75.1829 6.52319ZM73.5592 5.8615C73.4969 5.86153 73.4355 5.84662 73.3802 5.81802C73.3248 5.78943 73.2771 5.74798 73.2411 5.69716C73.205 5.64633 73.1817 5.58761 73.173 5.52591C73.1643 5.46421 73.1705 5.40132 73.1912 5.34252L73.5694 4.26128C73.6035 4.16366 73.675 4.08359 73.7682 4.0387C73.8613 3.9938 73.9685 3.98775 74.0661 4.02187C74.1638 4.056 74.2438 4.12751 74.2887 4.22067C74.3336 4.31383 74.3397 4.42101 74.3055 4.51863L73.9273 5.59987C73.9007 5.67628 73.851 5.74252 73.785 5.7894C73.7191 5.83628 73.6402 5.86148 73.5592 5.8615ZM75.9545 8.11289C75.8628 8.11238 75.7742 8.07959 75.7042 8.02028C75.6343 7.96097 75.5875 7.87891 75.572 7.78852C75.5565 7.69812 75.5733 7.60516 75.6195 7.52594C75.6657 7.44672 75.7384 7.3863 75.8247 7.35528L76.7971 7.01176C76.8946 6.97732 77.0018 6.98304 77.0951 7.02764C77.1885 7.07225 77.2602 7.15209 77.2947 7.24961C77.3291 7.34713 77.3234 7.45433 77.2788 7.54764C77.2342 7.64094 77.1543 7.71271 77.0568 7.74715L76.0843 8.09066C76.0426 8.10538 75.9987 8.11289 75.9545 8.11289Z" fill="#FA743E"/>
<path d="M77.0914 13.2719C76.8337 12.8695 77.0041 12.3053 76.9581 11.6748C76.923 10.6477 76.5163 9.63981 75.6889 8.8167L72.8706 6.01358C72.8706 6.01358 72.3153 5.46106 71.762 6.0167C71.2095 6.57194 71.7652 7.12484 71.7652 7.12484L72.956 8.3098L73.9877 9.33607C73.9877 9.33607 73.7109 9.61369 72.5688 8.47747C71.4259 7.34086 68.7109 4.63873 68.7109 4.63873C68.7109 4.63873 68.1553 4.08622 67.6024 4.64185C67.0495 5.19709 67.6051 5.7496 67.6051 5.7496L71.2532 9.37974C71.2454 9.37194 70.9592 9.63981 70.9541 9.63474L67.0511 5.75116C67.0511 5.75116 66.4954 5.19826 65.9425 5.75389C65.39 6.30953 65.9453 6.86204 65.9453 6.86204L69.8487 10.7464C69.8534 10.7511 69.5836 11.0353 69.5914 11.0431L66.2244 7.69256C66.2244 7.69256 65.6688 7.14005 65.1159 7.69568C64.563 8.25132 65.1186 8.80422 65.1186 8.80422L68.6985 12.3661C68.7312 12.3985 68.4918 12.7135 68.5327 12.7545L65.9531 10.1876C65.9531 10.1876 65.3974 9.63513 64.8445 10.1908C64.2916 10.7464 64.8472 11.2993 64.8472 11.2993L69.0545 15.4839C69.7571 16.183 70.4901 16.5492 71.3838 16.7047C71.5659 16.7363 71.7999 16.7441 71.895 16.7593C72.1964 16.8077 72.4584 16.9243 72.8074 17.1547C73.2558 17.4506 73.939 17.5906 74.348 17.182L75.7427 15.7876L77.0302 14.5001C77.4392 14.0907 77.3811 13.7242 77.0914 13.2719Z" fill="#FFDB5E"/>
<path d="M86.0757 15V14.3608L88.4763 11.733C88.758 11.4252 88.99 11.1577 89.1723 10.9304C89.3546 10.7008 89.4895 10.4854 89.5771 10.2841C89.6671 10.0805 89.7121 9.86745 89.7121 9.64492C89.7121 9.38924 89.6505 9.16788 89.5274 8.98085C89.4067 8.79383 89.241 8.64941 89.0303 8.54762C88.8196 8.44582 88.5828 8.39492 88.32 8.39492C88.0407 8.39492 87.7968 8.45292 87.5885 8.56892C87.3825 8.68256 87.2227 8.84236 87.1091 9.04833C86.9978 9.25429 86.9422 9.49577 86.9422 9.77276H86.1041C86.1041 9.34662 86.2024 8.97257 86.3989 8.6506C86.5954 8.32863 86.8629 8.07768 87.2014 7.89776C87.5423 7.71783 87.9247 7.62787 88.3484 7.62787C88.7746 7.62787 89.1522 7.71783 89.4813 7.89776C89.8103 8.07768 90.0684 8.32034 90.2554 8.62574C90.4424 8.93114 90.5359 9.27086 90.5359 9.64492C90.5359 9.91244 90.4874 10.174 90.3903 10.4297C90.2957 10.683 90.1299 10.9659 89.8932 11.2784C89.6588 11.5886 89.3333 11.9674 88.9166 12.4148L87.2831 14.162V14.2188H90.6638V15H86.0757Z" fill="#2D3142"/>
<rect x="55.6577" y="0.350031" width="44.3152" height="21.3" rx="7.65" stroke="#4B5066" stroke-width="0.7"/>
</svg>
