<svg width="20" height="22" viewBox="0 0 20 22" fill="none" xmlns="http://www.w3.org/2000/svg">
<path d="M19.3672 3.61722H14.9375V2.56253C14.9347 1.948 14.6894 1.35943 14.2548 0.924887C13.8203 0.490344 13.2317 0.244992 12.6172 0.242218H7.55469C6.94016 0.244992 6.35159 0.490344 5.91704 0.924887C5.4825 1.35943 5.23715 1.948 5.23438 2.56253V3.61722H0.804688C0.636855 3.61722 0.475897 3.68389 0.357221 3.80256C0.238546 3.92124 0.171875 4.0822 0.171875 4.25003C0.171875 4.41786 0.238546 4.57882 0.357221 4.6975C0.475897 4.81617 0.636855 4.88284 0.804688 4.88284H1.85938V20.2813C1.85938 20.6729 2.01494 21.0485 2.29185 21.3254C2.56876 21.6023 2.94433 21.7578 3.33594 21.7578H16.8359C17.2275 21.7578 17.6031 21.6023 17.88 21.3254C18.1569 21.0485 18.3125 20.6729 18.3125 20.2813V4.88284H19.3672C19.535 4.88284 19.696 4.81617 19.8147 4.6975C19.9333 4.57882 20 4.41786 20 4.25003C20 4.0822 19.9333 3.92124 19.8147 3.80256C19.696 3.68389 19.535 3.61722 19.3672 3.61722ZM6.5 2.56253C6.5 2.28281 6.61112 2.01455 6.80891 1.81675C7.0067 1.61896 7.27497 1.50784 7.55469 1.50784H12.6172C12.8969 1.50784 13.1652 1.61896 13.363 1.81675C13.5608 2.01455 13.6719 2.28281 13.6719 2.56253V3.61722H6.5V2.56253ZM17.0469 20.2813C17.0469 20.3372 17.0247 20.3909 16.9851 20.4304C16.9455 20.47 16.8919 20.4922 16.8359 20.4922H3.33594C3.27999 20.4922 3.22634 20.47 3.18678 20.4304C3.14722 20.3909 3.125 20.3372 3.125 20.2813V4.88284H17.0469V20.2813ZM8.1875 9.31253V16.0625C8.1875 16.2304 8.12083 16.3913 8.00215 16.51C7.88348 16.6287 7.72252 16.6953 7.55469 16.6953C7.38686 16.6953 7.2259 16.6287 7.10722 16.51C6.98855 16.3913 6.92188 16.2304 6.92188 16.0625V9.31253C6.92188 9.1447 6.98855 8.98374 7.10722 8.86506C7.2259 8.74639 7.38686 8.67972 7.55469 8.67972C7.72252 8.67972 7.88348 8.74639 8.00215 8.86506C8.12083 8.98374 8.1875 9.1447 8.1875 9.31253ZM13.25 9.31253V16.0625C13.25 16.2304 13.1833 16.3913 13.0647 16.51C12.946 16.6287 12.785 16.6953 12.6172 16.6953C12.4494 16.6953 12.2884 16.6287 12.1697 16.51C12.051 16.3913 11.9844 16.2304 11.9844 16.0625V9.31253C11.9844 9.1447 12.051 8.98374 12.1697 8.86506C12.2884 8.74639 12.4494 8.67972 12.6172 8.67972C12.785 8.67972 12.946 8.74639 13.0647 8.86506C13.1833 8.98374 13.25 9.1447 13.25 9.31253Z" fill="#4B5066"/>
</svg>
