<svg width="28" height="26" viewBox="0 0 28 26" fill="none" xmlns="http://www.w3.org/2000/svg">
<path d="M4.19986 13.2065V12.8565H3.84986H0.997919L13.24 1.56385L13.2401 1.56374C13.4059 1.41064 13.6211 1.32656 13.8434 1.32656C14.0657 1.32656 14.2808 1.41064 14.4466 1.56374L14.4468 1.56385L26.6888 12.8565H23.8369H23.4869V13.2065V24.6147C23.4869 24.8597 23.3909 25.0936 23.2217 25.2653C23.0527 25.4369 22.8245 25.5323 22.5877 25.5323H5.09905C4.86223 25.5323 4.63407 25.4369 4.46503 25.2653C4.29582 25.0936 4.19986 24.8597 4.19986 24.6147V13.2065ZM5.99824 23.3471V23.6971H6.34824H21.3385H21.6885V23.3471V10.8704V10.7171L21.5758 10.6131L14.0807 3.69981L13.8434 3.48093L13.6061 3.69981L6.11094 10.6131L5.99824 10.7171V10.8704V23.3471ZM18.4901 18.6268V20.462H9.19662V18.6268H18.4901Z" fill="white" stroke="#2D3142" stroke-width="0.7"/>
</svg>
