<svg width="18" height="28" viewBox="0 0 18 28" fill="none" xmlns="http://www.w3.org/2000/svg">
<path fill-rule="evenodd" clip-rule="evenodd" d="M1.37544 9.41966C1.37544 5.35173 4.67314 2.05403 8.74107 2.05403C12.809 2.05403 16.1067 5.35173 16.1067 9.41966C16.1067 11.9865 14.7937 14.2467 12.8026 15.5653C12.751 15.5897 12.7034 15.6206 12.6607 15.6569C11.5256 16.3717 10.1816 16.7853 8.74107 16.7853C4.67314 16.7853 1.37544 13.4876 1.37544 9.41966ZM12.5641 17.1985C11.411 17.7663 10.1133 18.0853 8.74107 18.0853C7.36946 18.0853 6.07227 17.7666 4.91951 17.1993L3.83761 25.3448L8.40675 22.6034C8.61259 22.4799 8.86975 22.4799 9.07559 22.6034L13.6449 25.345L12.5641 17.1985ZM3.70466 16.4723C1.50744 14.9004 0.0754395 12.3273 0.0754395 9.41966C0.0754395 4.63376 3.95517 0.754028 8.74107 0.754028C13.527 0.754028 17.4067 4.63376 17.4067 9.41966C17.4067 12.3266 15.9754 14.8992 13.779 16.4712L15.111 26.5105C15.1438 26.7579 15.0321 27.0023 14.8235 27.1393C14.6149 27.2763 14.3462 27.2818 14.1322 27.1534L8.74117 23.9188L3.35015 27.1534C3.13612 27.2818 2.86746 27.2763 2.65885 27.1393C2.45024 27.0022 2.33852 26.7578 2.37138 26.5104L3.70466 16.4723Z" fill="white"/>
</svg>
