<svg width="27" height="28" viewBox="0 0 27 28" fill="none" xmlns="http://www.w3.org/2000/svg">
<path d="M13.9705 13.0553V13.2553H14.1705H19.8387C20.0362 13.2553 20.2256 13.3337 20.3653 13.4734C20.5049 13.6131 20.5834 13.8025 20.5834 14C20.5834 14.1975 20.5049 14.3869 20.3653 14.5266C20.2256 14.6662 20.0362 14.7447 19.8387 14.7447H14.1705H13.9705V14.9447V20.6129C13.9705 20.8104 13.892 20.9998 13.7524 21.1395C13.6127 21.2791 13.4233 21.3576 13.2258 21.3576C13.0283 21.3576 12.8389 21.2791 12.6992 21.1395C12.5595 20.9998 12.4811 20.8104 12.4811 20.6129V14.9447V14.7447H12.2811H6.61289C6.41539 14.7447 6.22597 14.6662 6.08631 14.5266C5.94665 14.3869 5.8682 14.1975 5.8682 14C5.8682 13.8025 5.94665 13.6131 6.08631 13.4734C6.22597 13.3337 6.41539 13.2553 6.61289 13.2553H12.2811H12.4811V13.0553V7.38709C12.4811 7.18959 12.5595 7.00017 12.6992 6.86051C12.8389 6.72086 13.0283 6.6424 13.2258 6.6424C13.4233 6.6424 13.6127 6.72086 13.7524 6.86051C13.892 7.00017 13.9705 7.18959 13.9705 7.38709V13.0553ZM0.2 4.553C0.2 3.60384 0.577051 2.69356 1.24821 2.02241C1.91936 1.35125 2.82964 0.9742 3.7788 0.9742H22.6728C23.6219 0.9742 24.5322 1.35125 25.2034 2.02241C25.8745 2.69356 26.2516 3.60384 26.2516 4.553V23.447C26.2516 24.3961 25.8745 25.3064 25.2034 25.9776C24.5322 26.6487 23.6219 27.0258 22.6728 27.0258H3.7788C2.82964 27.0258 1.91936 26.6487 1.24821 25.9776C0.577051 25.3064 0.2 24.3961 0.2 23.447V4.553ZM3.7788 2.4636C3.22465 2.4636 2.69321 2.68373 2.30137 3.07557C1.90953 3.46741 1.6894 3.99885 1.6894 4.553V23.447C1.6894 24.0011 1.90953 24.5326 2.30137 24.9244C2.69321 25.3162 3.22465 25.5364 3.7788 25.5364H22.6728C23.2269 25.5364 23.7584 25.3162 24.1502 24.9244C24.542 24.5326 24.7622 24.0011 24.7622 23.447V4.553C24.7622 3.99885 24.542 3.46741 24.1502 3.07557C23.7584 2.68373 23.2269 2.4636 22.6728 2.4636H3.7788Z" fill="white" stroke="#2D3142" stroke-width="0.4"/>
</svg>
