<svg width="25" height="26" viewBox="0 0 25 26" fill="none" xmlns="http://www.w3.org/2000/svg">
<path d="M17.8334 17.5267L17.7458 17.6319L17.8426 17.7287L24.6936 24.5797L23.6031 25.6701L16.7522 18.8192L16.6553 18.7224L16.5501 18.81C14.5727 20.4571 12.0365 21.2785 9.46892 21.1032C6.90139 20.9279 4.50026 19.7696 2.76504 17.869C1.02983 15.9685 0.0941233 13.4722 0.152583 10.8993C0.211043 8.32649 1.25917 5.87522 3.07891 4.05548C4.89866 2.23573 7.34993 1.18761 9.92277 1.12915C12.4956 1.07069 14.992 2.00639 16.8925 3.74161C18.793 5.47682 19.9514 7.87795 20.1266 10.4455C20.3019 13.013 19.4806 15.5493 17.8334 17.5267ZM1.72537 11.1429L1.72537 11.143C1.72785 13.3809 2.61794 15.5264 4.20035 17.1088C5.78276 18.6912 7.92826 19.5813 10.1661 19.5838H10.1663C11.8357 19.5838 13.4677 19.0887 14.8558 18.1612C16.2439 17.2337 17.3258 15.9154 17.9647 14.3731C18.6036 12.8307 18.7707 11.1335 18.445 9.49611C18.1193 7.85873 17.3154 6.3547 16.1349 5.17422C14.9544 3.99374 13.4504 3.18982 11.813 2.86412C10.1757 2.53843 8.47847 2.70559 6.93609 3.34446C5.39371 3.98333 4.07542 5.06523 3.14792 6.45333C2.22042 7.84143 1.72537 9.4734 1.72537 11.1429Z" fill="white" stroke="#2D3142" stroke-width="0.3"/>
</svg>
