<svg width="22" height="26" viewBox="0 0 22 26" fill="none" xmlns="http://www.w3.org/2000/svg">
<path d="M7.11954 6.9978L7.11971 6.99781C7.18117 5.95196 7.63996 4.96912 8.4022 4.2504C9.16444 3.53168 10.1725 3.13139 11.2202 3.13145L7.11954 6.9978ZM7.11954 6.9978L7.11924 7.0084M7.11954 6.9978L7.11924 7.0084M7.11924 7.0084L7.11298 7.22883L7.11284 7.22883M7.11924 7.0084L7.11284 7.22883M7.11284 7.22883V7.23877M7.11284 7.22883V7.23877M7.11284 7.23877V10.9958M7.11284 7.23877L15.3208 11.2367M15.3208 11.2367L15.3206 11.2367C15.259 12.3041 14.7835 13.3053 13.9953 14.0277C13.2071 14.7501 12.1683 15.1367 11.0996 15.1053C10.031 15.0739 9.01662 14.6271 8.27216 13.8597C7.52771 13.0923 7.11181 12.0649 7.11284 10.9958M15.3208 11.2367L15.3211 11.2265M15.3208 11.2367L15.3211 11.2265M7.11284 10.9958L7.46284 10.9961H7.11284V10.9958ZM15.3211 11.2265L15.3274 11.006L15.3275 11.006M15.3211 11.2265L15.3275 11.006M15.3275 11.006V10.9961M15.3275 11.006V10.9961M15.3275 10.9961V7.23877M15.3275 10.9961V7.23877M15.3275 7.23877C15.3275 6.14944 14.8948 5.10473 14.1245 4.33446M15.3275 7.23877L14.1245 4.33446M14.1245 4.33446C13.3542 3.56419 12.3095 3.13145 11.2202 3.13145L14.1245 4.33446ZM11.2202 20.1132C15.5316 20.1132 19.2976 21.8934 21.456 24.5491L19.7825 25.3404C17.9038 23.2599 14.756 21.9181 11.2202 21.9181C7.68444 21.9181 4.53662 23.2598 2.65797 25.3403L0.985411 24.5481C3.14365 21.8924 6.9086 20.1132 11.2202 20.1132ZM11.2241 1.32656C12.7907 1.32762 14.2929 1.95039 15.4007 3.05821C16.5095 4.16696 17.1324 5.67076 17.1324 7.23877V10.9961C17.1323 12.5196 16.5441 13.9843 15.4904 15.0847C14.4375 16.1843 13.0011 16.8353 11.4802 16.9022L11.2162 16.9083C9.64963 16.9073 8.14743 16.2845 7.0396 15.1767C5.93085 14.0679 5.30796 12.5641 5.30796 10.9961V7.23879C5.30796 7.23879 5.30796 7.23878 5.30796 7.23877C5.30805 5.71525 5.89627 4.25057 6.94997 3.15017C8.00285 2.05062 9.43927 1.39962 10.9601 1.33265L11.2241 1.32656Z" fill="white" stroke="#2D3142" stroke-width="0.7"/>
</svg>
