<svg width="23" height="23" viewBox="0 0 23 23" fill="none" xmlns="http://www.w3.org/2000/svg">
<path d="M11.5 0C5.15841 0 0 5.15841 0 11.5C0 17.8416 5.15841 23 11.5 23C17.8416 23 23 17.8416 23 11.5C23 5.15841 17.8416 0 11.5 0ZM19.1049 5.30216C20.4733 6.97464 21.3026 9.10324 21.322 11.4226C20.9986 11.3535 17.7504 10.6956 14.4828 11.1075C14.4137 10.9388 14.3446 10.7702 14.2727 10.6016C14.0681 10.1233 13.8498 9.64507 13.6203 9.17788C17.25 7.69339 18.8976 5.58413 19.1049 5.30216ZM11.5 1.69183C13.9963 1.69183 16.2769 2.62897 18.0102 4.16599C17.8333 4.41755 16.3543 6.40517 12.8629 7.7155C11.254 4.75757 9.47091 2.33041 9.19724 1.9655C9.95192 1.78305 10.7232 1.69183 11.5 1.69183ZM7.32296 2.6262C7.58281 2.98005 9.33822 5.4155 10.9637 8.30709C6.36923 9.5262 2.32212 9.50961 1.88257 9.50409C2.52115 6.45493 4.57512 3.92272 7.32296 2.6262ZM1.678 11.5138C1.678 11.4143 1.68077 11.312 1.68353 11.2125C2.11202 11.2208 6.87235 11.2816 11.7792 9.8137C12.0612 10.3638 12.3293 10.9222 12.5754 11.4806C12.4454 11.5166 12.3155 11.5553 12.1883 11.5968C7.12115 13.2388 4.42584 17.7034 4.20192 18.0821C2.6345 16.3405 1.678 14.0377 1.678 11.5138ZM11.5 21.3358C9.22764 21.3358 7.13498 20.5618 5.47079 19.2625C5.64772 18.9004 7.63534 15.0606 13.1752 13.1282L13.2388 13.1061C14.6183 16.6888 15.1877 19.6937 15.3343 20.5562C14.1225 21.0742 12.8178 21.3394 11.5 21.3358ZM16.9874 19.6578C16.8879 19.0607 16.3654 16.1857 15.0799 12.6555C18.1595 12.1635 20.8631 12.9707 21.1976 13.0757C20.7608 15.807 19.1934 18.1678 16.9874 19.6578Z" fill="#E86868"/>
</svg>
