<svg width="23" height="22" viewBox="0 0 23 22" fill="none" xmlns="http://www.w3.org/2000/svg">
<path d="M11.5013 9.45395e-07C5.1468 -0.00252373 0 5.05187 0 11.2903C0 16.2235 3.21964 20.417 7.7035 21.9571C8.30734 22.106 8.21484 21.6844 8.21484 21.3966V19.44C4.72796 19.8414 4.58664 17.5742 4.35281 17.1955C3.88001 16.4028 2.76226 16.2008 3.0963 15.8221C3.89029 15.4207 4.6997 15.9231 5.63758 17.2839C6.31594 18.2711 7.63926 18.1044 8.30991 17.9403C8.45637 17.347 8.76986 16.8168 9.20154 16.4053C5.58876 15.7691 4.08301 13.6029 4.08301 11.0278C4.08301 9.77806 4.50184 8.62933 5.3241 7.70278C4.79991 6.17535 5.37292 4.86757 5.45001 4.67317C6.94291 4.54189 8.49492 5.72343 8.61569 5.81685C9.46364 5.59215 10.4324 5.47349 11.5167 5.47349C12.6062 5.47349 13.5775 5.5972 14.4331 5.82442C14.7235 5.6073 16.1624 4.59238 17.55 4.71609C17.6245 4.91049 18.1847 6.18797 17.6913 7.6952C18.5239 8.62428 18.9478 9.78311 18.9478 11.0353C18.9478 13.6156 17.4318 15.7843 13.8087 16.4104C14.1191 16.7102 14.3655 17.0678 14.5336 17.4623C14.7016 17.8568 14.7881 18.2802 14.7877 18.7078V21.5481C14.8083 21.7753 14.7877 22 15.1732 22C19.7238 20.4928 23 16.269 23 11.2929C23 5.05187 17.8506 9.45395e-07 11.5013 9.45395e-07Z" fill="#4B5066"/>
</svg>
